<svg id="Layer_1" data-name="Layer 1" xmlns="http://www.w3.org/2000/svg" viewBox="0 0 1200 457"><defs><style>.cls-1{fill:#6c55f3;}.cls-2{fill:#1a1a1a;}</style></defs><polygon class="cls-1" points="467.37 153.26 467.37 266.78 431.53 246.09 431.37 174.54 340.95 122.34 250.76 174.14 251 278.14 341.41 330.35 365.24 316.66 401.11 337.37 341.04 372.05 214.73 299.12 214.73 153.26 341.04 80.33 467.37 153.26"/><polygon class="cls-1" points="273.77 261.49 273.5 185 340.5 147 406.48 183.96 406.48 228.05 378.13 244.3 467.5 299 432.5 319 340.5 266 340.5 223 369.53 208.7 342.05 189.95 311.83 206.24 311.5 284 273.77 261.49"/><path class="cls-2" d="M576.17,264.76l-9.93,0a5,5,0,0,1-4.34-2.58l-14.44-25.6h-1.23l-11.94,0-.07,24.1a4,4,0,0,1-4,4l-7.14,0a4,4,0,0,1-4-4l.19-70.09a4,4,0,0,1,4-4l23.1.06c17.53,0,29,10.69,29,25.53,0,9.93-5.3,17.4-13.79,21.39L578.31,261A2.48,2.48,0,0,1,576.17,264.76Zm-41.84-41.3,11.94,0c7.7,0,13.63-3.53,13.65-11.45,0-7-5.22-11.4-13.59-11.43l-11.94,0Z"/><path class="cls-2" d="M639.64,238.27a4,4,0,0,1-3.92,3.89l-38.28-.11c2,7.49,8.23,11.52,16,11.54a17.17,17.17,0,0,0,11.17-4,2.87,2.87,0,0,1,3.46-.33l6.35,3.81a3,3,0,0,1,.55,4.69,30.38,30.38,0,0,1-21.57,8.42c-18.75-.05-31.1-12.47-31.05-29.66.05-17.74,13.36-29.65,29-29.6C627.45,207,640.47,218.29,639.64,238.27Zm-14-7.08c-1.43-7.48-6.45-11.62-14-11.64-6.92,0-12.4,4.32-14.1,11.57Z"/><path class="cls-2" d="M731.4,229.82l-.09,31.36a4,4,0,0,1-3.92,4l-6.25,0a4,4,0,0,1-4-4l.08-28.46c0-7-2.86-11.73-9.45-11.74s-10.06,5.21-10.08,11.69l-.08,28.45a4,4,0,0,1-4,4l-6.14,0a4,4,0,0,1-4-4l.08-28.45c0-7-2.87-11.73-9.45-11.75S664,226.06,664,232.53L663.9,261a4,4,0,0,1-4,4l-6.14,0a4,4,0,0,1-4-4l.13-48.55a4,4,0,0,1,4-4H660a4,4,0,0,1,4,4v2c2.91-4.12,7.5-7.34,15-7.32,7.7,0,12.71,3.6,15.6,8.86a20.32,20.32,0,0,1,17.1-8.77C724.76,207.26,731.43,217.77,731.4,229.82Z"/><path class="cls-2" d="M804.58,237.17c0,14.73-10.12,29.54-27.64,29.5-8.82,0-14.5-3.39-18.06-8.09v2.68a4,4,0,0,1-4,4H748.7a4,4,0,0,1-4-4l.2-70.09a4,4,0,0,1,4-4l6.14,0a4,4,0,0,1,4,4L759,215.39c3.58-4.68,9.29-8,18.1-8C794.62,207.45,804.63,222.32,804.58,237.17Zm-14.5,0c0-8.71-5.54-16.09-15.25-16.12s-15.31,7.21-15.33,16,5.53,16.09,15.24,16.11S790.05,245.72,790.08,237.13Z"/><path class="cls-2" d="M860.57,209l6.25,0a4,4,0,0,1,4,4l-.13,46.42c0,15.85-10.68,28.65-30.77,28.6-9.82,0-18.85-3.52-24.2-8.55a3,3,0,0,1,.46-4.69l6.49-3.77a2.84,2.84,0,0,1,3.46.34c2.67,2.13,7.13,4,13.38,4.06,10.93,0,17-6.1,17-17v-4.24c-3.47,5-9.06,8.79-17.88,8.76-17.08-.05-27.42-13.24-27.38-27.75s10.46-27.65,27.54-27.6c8.81,0,14.38,3.83,17.83,8.75V213A4,4,0,0,1,860.57,209Zm-4.65,26.32c0-8.25-5.53-15.08-15-15.1-9.15,0-15.08,6.54-15.11,15s5.88,15.08,15,15.11C850.3,250.35,855.9,243.45,855.92,235.3Z"/><path class="cls-2" d="M898.82,258.86a8.2,8.2,0,1,1-8.12-8.28A8.21,8.21,0,0,1,898.82,258.86Z"/><path class="cls-2" d="M957,209.25l6.13,0a4,4,0,0,1,4,4L967,261.84a4,4,0,0,1-4,4l-6.13,0a4,4,0,0,1-4-4v-2.67c-3.59,4.67-9.29,8-18.1,8-17.53-.05-27.53-14.92-27.49-29.65s10.13-29.66,27.65-29.61c8.82,0,14.5,3.39,18.06,8.09v-2.68A4,4,0,0,1,957,209.25Zm-4.66,28.33c0-8.81-5.53-16.08-15.24-16.11s-15.31,7.32-15.34,16,5.54,16.08,15.25,16.11S952.32,246.29,952.34,237.58Z"/><path class="cls-2" d="M980.14,193.47a7.54,7.54,0,1,1,7.46,7.61A7.58,7.58,0,0,1,980.14,193.47Zm.25,68.41.14-48.55a4,4,0,0,1,4-4l6.14,0a4,4,0,0,1,4,4l-.13,48.55a4,4,0,0,1-4,4l-6.14,0A4,4,0,0,1,980.39,261.88Z"/></svg>